<svg width="302.02mm" height="996.094" viewBox="0 0 302.02 263.55" xmlns="http://www.w3.org/2000/svg"><defs><linearGradient id="a" x1="-150.27" x2="-186.97" y1="206.69" y2="-116.48" gradientUnits="userSpaceOnUse"><stop stop-color="#ff00d4" offset="0"/><stop stop-color="#1bcad8" stop-opacity=".98" offset=".425"/><stop stop-color="#10ffcc" stop-opacity=".824" offset="1"/></linearGradient><linearGradient id="b" x1="-794.21" x2="-791.43" y1="143.9" y2="43.673" gradientTransform="translate(659.39 -32.931) scale(1.0321)" gradientUnits="userSpaceOnUse"><stop stop-color="#4df8ae" stop-opacity=".879" offset="0"/><stop stop-color="#db37ff" stop-opacity=".905" offset="1"/></linearGradient></defs><path transform="rotate(6.874 -438.671 2753.74)" d="M-80.887 194.95l-142.6 17.18-86.179-114.9 56.421-132.09 142.6-17.18 86.179 114.9z" fill="#333" fill-opacity=".005" stroke="url(#a)" stroke-linejoin="round" stroke-width="14.758"/><text transform="matrix(1.0526 0 0 .95003 315.57 53.11)" x="-225.261" y="153.408" fill="url(#b)" font-family="sans-serif" font-size="198.16" letter-spacing="0" stroke="#316cff" stroke-opacity=".683" stroke-width="1.032" word-spacing="0" style="line-height:1.25"><tspan x="-225.261" y="153.408"><tspan x="-225.261" y="153.408">S</tspan></tspan></text><g fill="#7fc515" fill-opacity=".914" stroke="#db37ff" stroke-linejoin="round" stroke-opacity=".905" paint-order="markers fill stroke"><path stroke-width="1.2" d="M20.77 133.622h43.832v.535H20.77z"/><path stroke-width="1.007" d="M34.317 146.338l30.754-2.447.042.534-30.753 2.446z"/><path transform="matrix(.92888 -.37038 .11495 .99337 315.57 53.11)" stroke-width=".803" d="M-283.76 14.969h19.651v.535h-19.651z"/><path stroke-width=".849" d="M45.826 159.877l21.38-4.927.12.521-21.38 4.927z"/><path stroke-width="1.007" d="M80.42 222.774l19.51-23.898.415.338-19.51 23.898z"/><path stroke-width=".849" d="M74.506 205.898l16.172-14.827.361.395-16.172 14.826z"/><path transform="matrix(.9653 -.26114 0 1 315.57 53.11)" stroke-width=".803" d="M-409.64 74.191h19.651v.535h-19.651z"/><path transform="matrix(.86428 -.50301 .12795 .99178 315.57 53.11)" stroke-width=".858" d="M-290.01-9.904h19.107v.627h-19.107z"/><path transform="rotate(179.372 157.64 27.42) skewX(.037)" stroke-width="1.208" d="M36.908-76.469h44.759v.53H36.908z"/><path stroke-width="1.007" d="M264.673 117.687l-30.724 2.796-.048-.533 30.724-2.796z"/><path transform="matrix(-.88727 .46126 -.54163 -.84061 315.57 53.11)" stroke-width=".87" d="M73.391.207h25.721v.479H73.391z"/><path stroke-width="1.007" d="M222.112 43.394l-19.24 24.117-.418-.333 19.24-24.118z"/><path transform="matrix(-.80621 .59163 -.31416 -.94937 315.57 53.11)" stroke-width=".811" d="M86.093 31.131h20.421v.525H86.093z"/><path transform="matrix(-.93136 .36409 -.11605 -.99324 315.57 53.11)" stroke-width=".813" d="M73.241-22.934h20.154v.534H73.241z"/><path transform="matrix(-.73644 .6765 -.4164 -.90918 315.57 53.11)" stroke-width=".811" d="M89.225 56.658h20.421v.525H89.225z"/><path transform="matrix(-.63416 -.7732 .78378 -.62103 315.57 53.11)" stroke-width=".987" d="M-71.775-180.64h28.702v.552h-28.702z"/><path transform="matrix(-.80616 -.5917 .81164 -.58416 315.57 53.11)" stroke-width=".794" d="M-68.459-171.76h18.563v.552h-18.563z"/><path transform="matrix(-.69692 -.71715 .74885 -.66273 315.57 53.11)" stroke-width=".833" d="M-54.128-173.78h20.518v.55h-20.518z"/><path transform="matrix(-.99362 -.11276 .2154 -.97653 315.57 53.11)" stroke-width=".99" d="M30.719-99.555h30.654v.52H30.719z"/><path transform="matrix(-.96756 -.25266 .35345 -.93545 315.57 53.11)" stroke-width=".835" d="M22.458-120.66H43.93v.528H22.458z"/><path transform="matrix(-.88879 -.45831 .80468 -.5937 315.57 53.11)" stroke-width=".853" d="M-62.542-161.51h18.288v.648h-18.288z"/><path stroke-width="1.2" d="M83.84 242.814l22.65-37.526.459.277-22.65 37.526z"/><path transform="matrix(-.44328 -.89638 .8394 -.54352 315.57 53.11)" stroke-width="1.26" d="M-104.18-177.64h44.415v.582h-44.415z"/><path stroke-width="1.007" d="M102.525 236.724l13.798-27.593.478.239-13.798 27.593z"/><path transform="matrix(.16292 -.98664 .90986 .41493 315.57 53.11)" stroke-width=".803" d="M-247.73-153.91h19.651v.535h-19.651z"/><path stroke-width=".849" d="M120.334 233.061l6.83-20.85.51.167-6.831 20.85z"/><path stroke-width="1.007" d="M190.995 237.83l-10.38-29.053.504-.18 10.38 29.053z"/><path stroke-width=".849" d="M173.482 234.157l-4.337-21.508.525-.105 4.336 21.507z"/><path transform="matrix(.01598 -.99987 .91521 .40298 315.57 53.11)" stroke-width=".858" d="M-250.76-172.65h19.107v.627h-19.107z"/><path stroke-width="1.007" d="M83.99 38.6l14.826 27.055-.469.257L83.52 38.857z"/><path transform="matrix(.7183 .69573 -.85917 .51169 315.57 53.11)" stroke-width=".803" d="M-117.95 188.52h19.651v.535h-19.651z"/><path stroke-width=".849" d="M78.215 54.385l13.25 17.487-.426.323-13.25-17.487z"/><path stroke-width="1.007" d="M35.285 112.427l29.792 8.013-.14.517-29.791-8.013z"/><path stroke-width=".849" d="M48.255 98.62l20.15 8.682-.213.491-20.149-8.681z"/><path transform="matrix(.81285 .58247 -.8524 .5229 315.57 53.11)" stroke-width=".858" d="M-119.3 187.15h19.107v.627H-119.3z"/><path stroke-width="1.2" d="M218.125 25.46L193.85 61.956l-.445-.297 24.275-36.496z"/><path transform="matrix(.43202 .90186 -.84614 .53296 315.57 53.11)" stroke-width="1.26" d="M-149.94 190.86h44.415v.582h-44.415z"/><path stroke-width="1.007" d="M198.394 29.166L184.073 56.49l-.474-.248 14.321-27.325z"/><path transform="matrix(-.15844 .98737 -.91173 -.41079 315.57 53.11)" stroke-width=".803" d="M43.163 157.49h19.651v.535H43.163z"/><path stroke-width=".849" d="M180.835 32.044l-6.856 20.841-.508-.167 6.856-20.84z"/><path stroke-width="1.007" d="M108.48 25.619l10.506 29.007-.503.182-10.506-29.007z"/><path stroke-width=".849" d="M127.039 29.886l2.84 21.756-.531.069-2.84-21.756z"/><path transform="matrix(-.00106 1 -.92112 -.38928 315.57 53.11)" stroke-width=".858" d="M48.999 183.85h19.107v.627H48.999z"/></g></svg>